<svg id="_Resources_Icons_Social_Twitter" data-name="_Resources / Icons / Social / Twitter" xmlns="http://www.w3.org/2000/svg" xmlns:xlink="http://www.w3.org/1999/xlink" width="24" height="24" viewBox="0 0 24 24">
  <defs>
    <clipPath id="clip-path">
      <path id="Mask" d="M18.526,2.846A4.51,4.51,0,0,0,20.419.333a8.355,8.355,0,0,1-2.736,1.1A4.194,4.194,0,0,0,14.539,0a4.43,4.43,0,0,0-4.307,4.544,4.754,4.754,0,0,0,.11,1.035A12.033,12.033,0,0,1,1.462.831,4.724,4.724,0,0,0,.879,3.116,4.616,4.616,0,0,0,2.8,6.9,4.154,4.154,0,0,1,.843,6.331v.056A4.49,4.49,0,0,0,4.3,10.842,4.01,4.01,0,0,1,3.164,11a4.051,4.051,0,0,1-.81-.081,4.345,4.345,0,0,0,4.024,3.155,8.364,8.364,0,0,1-5.351,1.945A8.137,8.137,0,0,1,0,15.959,11.747,11.747,0,0,0,6.6,18c7.926,0,12.257-6.924,12.257-12.929,0-.2,0-.394-.011-.588A9.006,9.006,0,0,0,21,2.131,8.257,8.257,0,0,1,18.526,2.846Z" transform="translate(2 3)" fill="#fff"/>
    </clipPath>
  </defs>
  <g id="twitter">
    <path id="Rectangle" d="M0,0H24V24H0Z" fill="none"/>
    <path id="Mask-2" data-name="Mask" d="M18.526,2.846A4.51,4.51,0,0,0,20.419.333a8.355,8.355,0,0,1-2.736,1.1A4.194,4.194,0,0,0,14.539,0a4.43,4.43,0,0,0-4.307,4.544,4.754,4.754,0,0,0,.11,1.035A12.033,12.033,0,0,1,1.462.831,4.724,4.724,0,0,0,.879,3.116,4.616,4.616,0,0,0,2.8,6.9,4.154,4.154,0,0,1,.843,6.331v.056A4.49,4.49,0,0,0,4.3,10.842,4.01,4.01,0,0,1,3.164,11a4.051,4.051,0,0,1-.81-.081,4.345,4.345,0,0,0,4.024,3.155,8.364,8.364,0,0,1-5.351,1.945A8.137,8.137,0,0,1,0,15.959,11.747,11.747,0,0,0,6.6,18c7.926,0,12.257-6.924,12.257-12.929,0-.2,0-.394-.011-.588A9.006,9.006,0,0,0,21,2.131,8.257,8.257,0,0,1,18.526,2.846Z" transform="translate(2 3)" fill="#fff"/>
    <g id="twitter-2" data-name="twitter" clip-path="url(#clip-path)">
      <g id="_Resources_ChangeColorsHere_Ink" data-name="_Resources / ChangeColorsHere / Ink">
        <path id="Rectangle_4_Copy_11" data-name="Rectangle 4 Copy 11" d="M4,0H20a4,4,0,0,1,4,4V20a4,4,0,0,1-4,4H4a4,4,0,0,1-4-4V4A4,4,0,0,1,4,0Z" fill="#c7ccd1"/>
      </g>
    </g>
  </g>
</svg>
