<svg id="_Resources_Icons_Social_Odnoklass" data-name="_Resources / Icons / Social / Odnoklass" xmlns="http://www.w3.org/2000/svg" xmlns:xlink="http://www.w3.org/1999/xlink" width="24" height="24" viewBox="0 0 24 24">
  <defs>
    <clipPath id="clip-path">
      <path id="Mask" d="M10.882,22.286a1.689,1.689,0,0,1-1.2-.493L6.5,18.633l-3.181,3.16a1.707,1.707,0,0,1-2.4,0,1.677,1.677,0,0,1,0-2.383l3.238-3.215A10.876,10.876,0,0,1,.793,14.811,1.685,1.685,0,0,1,1.7,11.7a1.7,1.7,0,0,1,.9.259,7.4,7.4,0,0,0,7.8,0,1.7,1.7,0,0,1,2.34.53,1.677,1.677,0,0,1-.532,2.323,10.854,10.854,0,0,1-3.363,1.383l3.238,3.215a1.676,1.676,0,0,1,0,2.383A1.693,1.693,0,0,1,10.882,22.286ZM6.485,11.5a5.75,5.75,0,1,1,5.792-5.749A5.777,5.777,0,0,1,6.485,11.5Zm0-8.13a2.381,2.381,0,1,0,2.4,2.38A2.392,2.392,0,0,0,6.485,3.371Z" transform="translate(6 1)" fill="#fff"/>
    </clipPath>
  </defs>
  <g id="odnoklassniki">
    <path id="Rectangle" d="M0,0H24V24H0Z" fill="none"/>
    <path id="Mask-2" data-name="Mask" d="M10.882,22.286a1.689,1.689,0,0,1-1.2-.493L6.5,18.633l-3.181,3.16a1.707,1.707,0,0,1-2.4,0,1.677,1.677,0,0,1,0-2.383l3.238-3.215A10.876,10.876,0,0,1,.793,14.811,1.685,1.685,0,0,1,1.7,11.7a1.7,1.7,0,0,1,.9.259,7.4,7.4,0,0,0,7.8,0,1.7,1.7,0,0,1,2.34.53,1.677,1.677,0,0,1-.532,2.323,10.854,10.854,0,0,1-3.363,1.383l3.238,3.215a1.676,1.676,0,0,1,0,2.383A1.693,1.693,0,0,1,10.882,22.286ZM6.485,11.5a5.75,5.75,0,1,1,5.792-5.749A5.777,5.777,0,0,1,6.485,11.5Zm0-8.13a2.381,2.381,0,1,0,2.4,2.38A2.392,2.392,0,0,0,6.485,3.371Z" transform="translate(6 1)" fill="#fff"/>
    <g id="odnoklassniki-2" data-name="odnoklassniki" clip-path="url(#clip-path)">
      <g id="_Resources_ChangeColorsHere_Ink" data-name="_Resources / ChangeColorsHere / Ink">
        <path id="Rectangle_4_Copy_11" data-name="Rectangle 4 Copy 11" d="M4,0H20a4,4,0,0,1,4,4V20a4,4,0,0,1-4,4H4a4,4,0,0,1-4-4V4A4,4,0,0,1,4,0Z" fill="#c7ccd1"/>
      </g>
    </g>
  </g>
</svg>
