<svg id="Elements_Icons_S_Other" data-name="Elements / Icons /  S / Other" xmlns="http://www.w3.org/2000/svg" xmlns:xlink="http://www.w3.org/1999/xlink" width="24" height="24" viewBox="0 0 24 24">
  <defs>
    <clipPath id="clip-path">
      <path id="Mask" d="M12,14a2,2,0,1,1,2,2A2,2,0,0,1,12,14ZM6,14a2,2,0,1,1,2,2A2,2,0,0,1,6,14ZM0,14a2,2,0,1,1,2,2A2,2,0,0,1,0,14ZM12,8a2,2,0,1,1,2,2A2,2,0,0,1,12,8ZM6,8a2,2,0,1,1,2,2A2,2,0,0,1,6,8ZM0,8a2,2,0,1,1,2,2A2,2,0,0,1,0,8ZM12,2a2,2,0,1,1,2,2A2,2,0,0,1,12,2ZM6,2A2,2,0,1,1,8,4,2,2,0,0,1,6,2ZM0,2A2,2,0,1,1,2,4,2,2,0,0,1,0,2Z" transform="translate(4 4)" fill="#fff"/>
    </clipPath>
  </defs>
  <g id="other">
    <path id="Rectangle" d="M0,0H24V24H0Z" fill="none"/>
    <path id="Mask-2" data-name="Mask" d="M12,14a2,2,0,1,1,2,2A2,2,0,0,1,12,14ZM6,14a2,2,0,1,1,2,2A2,2,0,0,1,6,14ZM0,14a2,2,0,1,1,2,2A2,2,0,0,1,0,14ZM12,8a2,2,0,1,1,2,2A2,2,0,0,1,12,8ZM6,8a2,2,0,1,1,2,2A2,2,0,0,1,6,8ZM0,8a2,2,0,1,1,2,2A2,2,0,0,1,0,8ZM12,2a2,2,0,1,1,2,2A2,2,0,0,1,12,2ZM6,2A2,2,0,1,1,8,4,2,2,0,0,1,6,2ZM0,2A2,2,0,1,1,2,4,2,2,0,0,1,0,2Z" transform="translate(4 4)" fill="#fff"/>
    <g id="other-2" data-name="other" clip-path="url(#clip-path)">
      <g id="_Resources_ChangeColorsHere_Platinum" data-name="_Resources / ChangeColorsHere / Platinum">
        <path id="Rectangle_4_Copy_11" data-name="Rectangle 4 Copy 11" d="M4,0H20a4,4,0,0,1,4,4V20a4,4,0,0,1-4,4H4a4,4,0,0,1-4-4V4A4,4,0,0,1,4,0Z" fill="#c7ccd1"/>
      </g>
    </g>
  </g>
</svg>
