<svg id="LINK_ICON" xmlns="http://www.w3.org/2000/svg" xmlns:xlink="http://www.w3.org/1999/xlink" width="24" height="24" viewBox="0 0 24 24">
  <defs>
    <clipPath id="clip-path">
      <path id="Mask" d="M3.707,0V2H8.292L0,10.293l1.414,1.414L9.706,3.415V8h2V0Z" transform="translate(6.293 6)" fill="#fff"/>
    </clipPath>
  </defs>
  <g id="outlink">
    <path id="Rectangle" d="M0,0H24V24H0Z" fill="none"/>
    <path id="Mask-2" data-name="Mask" d="M3.707,0V2H8.292L0,10.293l1.414,1.414L9.706,3.415V8h2V0Z" transform="translate(6.293 6)" fill="#fff"/>
    <g id="outlink-2" data-name="outlink" clip-path="url(#clip-path)">
      <g id="Color">
        <path id="Rectangle_4_Copy_11" data-name="Rectangle 4 Copy 11" d="M4,0H20a4,4,0,0,1,4,4V20a4,4,0,0,1-4,4H4a4,4,0,0,1-4-4V4A4,4,0,0,1,4,0Z" fill="#c7ccd1"/>
      </g>
    </g>
  </g>
</svg>
