<svg xmlns="http://www.w3.org/2000/svg" width="1059" height="1" viewBox="0 0 1059 1">
  <g id="Rectangle_Copy_34" data-name="Rectangle Copy 34" fill="none" stroke-miterlimit="10" stroke-dasharray="1 3">
    <path d="M0,0H1059V1H0Z" stroke="none"/>
    <path d="M 0 0 L 1 0 L 1 1 L 0 1 L 0 0 Z M 4 0 L 5 0 L 5 1 L 4 1 L 4 0 Z M 8 0 L 9 0 L 9 1 L 8 1 L 8 0 Z M 12 0 L 13 0 L 13 1 L 12 1 L 12 0 Z M 16 0 L 17 0 L 17 1 L 16 1 L 16 0 Z M 20 0 L 21 0 L 21 1 L 20 1 L 20 0 Z M 24 0 L 25 0 L 25 1 L 24 1 L 24 0 Z M 28 0 L 29 0 L 29 1 L 28 1 L 28 0 Z M 32 0 L 33 0 L 33 1 L 32 1 L 32 0 Z M 36 0 L 37 0 L 37 1 L 36 1 L 36 0 Z M 40 0 L 41 0 L 41 1 L 40 1 L 40 0 Z M 44 0 L 45 0 L 45 1 L 44 1 L 44 0 Z M 48 0 L 49 0 L 49 1 L 48 1 L 48 0 Z M 52 0 L 53 0 L 53 1 L 52 1 L 52 0 Z M 56 0 L 57 0 L 57 1 L 56 1 L 56 0 Z M 60 0 L 61 0 L 61 1 L 60 1 L 60 0 Z M 64 0 L 65 0 L 65 1 L 64 1 L 64 0 Z M 68 0 L 69 0 L 69 1 L 68 1 L 68 0 Z M 72 0 L 73 0 L 73 1 L 72 1 L 72 0 Z M 76 0 L 77 0 L 77 1 L 76 1 L 76 0 Z M 80 0 L 81 0 L 81 1 L 80 1 L 80 0 Z M 84 0 L 85 0 L 85 1 L 84 1 L 84 0 Z M 88 0 L 89 0 L 89 1 L 88 1 L 88 0 Z M 92 0 L 93 0 L 93 1 L 92 1 L 92 0 Z M 96 0 L 97 0 L 97 1 L 96 1 L 96 0 Z M 100 0 L 101 0 L 101 1 L 100 1 L 100 0 Z M 104 0 L 105 0 L 105 1 L 104 1 L 104 0 Z M 108 0 L 109 0 L 109 1 L 108 1 L 108 0 Z M 112 0 L 113 0 L 113 1 L 112 1 L 112 0 Z M 116 0 L 117 0 L 117 1 L 116 1 L 116 0 Z M 120 0 L 121 0 L 121 1 L 120 1 L 120 0 Z M 124 0 L 125 0 L 125 1 L 124 1 L 124 0 Z M 128 0 L 129 0 L 129 1 L 128 1 L 128 0 Z M 132 0 L 133 0 L 133 1 L 132 1 L 132 0 Z M 136 0 L 137 0 L 137 1 L 136 1 L 136 0 Z M 140 0 L 141 0 L 141 1 L 140 1 L 140 0 Z M 144 0 L 145 0 L 145 1 L 144 1 L 144 0 Z M 148 0 L 149 0 L 149 1 L 148 1 L 148 0 Z M 152 0 L 153 0 L 153 1 L 152 1 L 152 0 Z M 156 0 L 157 0 L 157 1 L 156 1 L 156 0 Z M 160 0 L 161 0 L 161 1 L 160 1 L 160 0 Z M 164 0 L 165 0 L 165 1 L 164 1 L 164 0 Z M 168 0 L 169 0 L 169 1 L 168 1 L 168 0 Z M 172 0 L 173 0 L 173 1 L 172 1 L 172 0 Z M 176 0 L 177 0 L 177 1 L 176 1 L 176 0 Z M 180 0 L 181 0 L 181 1 L 180 1 L 180 0 Z M 184 0 L 185 0 L 185 1 L 184 1 L 184 0 Z M 188 0 L 189 0 L 189 1 L 188 1 L 188 0 Z M 192 0 L 193 0 L 193 1 L 192 1 L 192 0 Z M 196 0 L 197 0 L 197 1 L 196 1 L 196 0 Z M 200 0 L 201 0 L 201 1 L 200 1 L 200 0 Z M 204 0 L 205 0 L 205 1 L 204 1 L 204 0 Z M 208 0 L 209 0 L 209 1 L 208 1 L 208 0 Z M 212 0 L 213 0 L 213 1 L 212 1 L 212 0 Z M 216 0 L 217 0 L 217 1 L 216 1 L 216 0 Z M 220 0 L 221 0 L 221 1 L 220 1 L 220 0 Z M 224 0 L 225 0 L 225 1 L 224 1 L 224 0 Z M 228 0 L 229 0 L 229 1 L 228 1 L 228 0 Z M 232 0 L 233 0 L 233 1 L 232 1 L 232 0 Z M 236 0 L 237 0 L 237 1 L 236 1 L 236 0 Z M 240 0 L 241 0 L 241 1 L 240 1 L 240 0 Z M 244 0 L 245 0 L 245 1 L 244 1 L 244 0 Z M 248 0 L 249 0 L 249 1 L 248 1 L 248 0 Z M 252 0 L 253 0 L 253 1 L 252 1 L 252 0 Z M 256 0 L 257 0 L 257 1 L 256 1 L 256 0 Z M 260 0 L 261 0 L 261 1 L 260 1 L 260 0 Z M 264 0 L 265 0 L 265 1 L 264 1 L 264 0 Z M 268 0 L 269 0 L 269 1 L 268 1 L 268 0 Z M 272 0 L 273 0 L 273 1 L 272 1 L 272 0 Z M 276 0 L 277 0 L 277 1 L 276 1 L 276 0 Z M 280 0 L 281 0 L 281 1 L 280 1 L 280 0 Z M 284 0 L 285 0 L 285 1 L 284 1 L 284 0 Z M 288 0 L 289 0 L 289 1 L 288 1 L 288 0 Z M 292 0 L 293 0 L 293 1 L 292 1 L 292 0 Z M 296 0 L 297 0 L 297 1 L 296 1 L 296 0 Z M 300 0 L 301 0 L 301 1 L 300 1 L 300 0 Z M 304 0 L 305 0 L 305 1 L 304 1 L 304 0 Z M 308 0 L 309 0 L 309 1 L 308 1 L 308 0 Z M 312 0 L 313 0 L 313 1 L 312 1 L 312 0 Z M 316 0 L 317 0 L 317 1 L 316 1 L 316 0 Z M 320 0 L 321 0 L 321 1 L 320 1 L 320 0 Z M 324 0 L 325 0 L 325 1 L 324 1 L 324 0 Z M 328 0 L 329 0 L 329 1 L 328 1 L 328 0 Z M 332 0 L 333 0 L 333 1 L 332 1 L 332 0 Z M 336 0 L 337 0 L 337 1 L 336 1 L 336 0 Z M 340 0 L 341 0 L 341 1 L 340 1 L 340 0 Z M 344 0 L 345 0 L 345 1 L 344 1 L 344 0 Z M 348 0 L 349 0 L 349 1 L 348 1 L 348 0 Z M 352 0 L 353 0 L 353 1 L 352 1 L 352 0 Z M 356 0 L 357 0 L 357 1 L 356 1 L 356 0 Z M 360 0 L 361 0 L 361 1 L 360 1 L 360 0 Z M 364 0 L 365 0 L 365 1 L 364 1 L 364 0 Z M 368 0 L 369 0 L 369 1 L 368 1 L 368 0 Z M 372 0 L 373 0 L 373 1 L 372 1 L 372 0 Z M 376 0 L 377 0 L 377 1 L 376 1 L 376 0 Z M 380 0 L 381 0 L 381 1 L 380 1 L 380 0 Z M 384 0 L 385 0 L 385 1 L 384 1 L 384 0 Z M 388 0 L 389 0 L 389 1 L 388 1 L 388 0 Z M 392 0 L 393 0 L 393 1 L 392 1 L 392 0 Z M 396 0 L 397 0 L 397 1 L 396 1 L 396 0 Z M 400 0 L 401 0 L 401 1 L 400 1 L 400 0 Z M 404 0 L 405 0 L 405 1 L 404 1 L 404 0 Z M 408 0 L 409 0 L 409 1 L 408 1 L 408 0 Z M 412 0 L 413 0 L 413 1 L 412 1 L 412 0 Z M 416 0 L 417 0 L 417 1 L 416 1 L 416 0 Z M 420 0 L 421 0 L 421 1 L 420 1 L 420 0 Z M 424 0 L 425 0 L 425 1 L 424 1 L 424 0 Z M 428 0 L 429 0 L 429 1 L 428 1 L 428 0 Z M 432 0 L 433 0 L 433 1 L 432 1 L 432 0 Z M 436 0 L 437 0 L 437 1 L 436 1 L 436 0 Z M 440 0 L 441 0 L 441 1 L 440 1 L 440 0 Z M 444 0 L 445 0 L 445 1 L 444 1 L 444 0 Z M 448 0 L 449 0 L 449 1 L 448 1 L 448 0 Z M 452 0 L 453 0 L 453 1 L 452 1 L 452 0 Z M 456 0 L 457 0 L 457 1 L 456 1 L 456 0 Z M 460 0 L 461 0 L 461 1 L 460 1 L 460 0 Z M 464 0 L 465 0 L 465 1 L 464 1 L 464 0 Z M 468 0 L 469 0 L 469 1 L 468 1 L 468 0 Z M 472 0 L 473 0 L 473 1 L 472 1 L 472 0 Z M 476 0 L 477 0 L 477 1 L 476 1 L 476 0 Z M 480 0 L 481 0 L 481 1 L 480 1 L 480 0 Z M 484 0 L 485 0 L 485 1 L 484 1 L 484 0 Z M 488 0 L 489 0 L 489 1 L 488 1 L 488 0 Z M 492 0 L 493 0 L 493 1 L 492 1 L 492 0 Z M 496 0 L 497 0 L 497 1 L 496 1 L 496 0 Z M 500 0 L 501 0 L 501 1 L 500 1 L 500 0 Z M 504 0 L 505 0 L 505 1 L 504 1 L 504 0 Z M 508 0 L 509 0 L 509 1 L 508 1 L 508 0 Z M 512 0 L 513 0 L 513 1 L 512 1 L 512 0 Z M 516 0 L 517 0 L 517 1 L 516 1 L 516 0 Z M 520 0 L 521 0 L 521 1 L 520 1 L 520 0 Z M 524 0 L 525 0 L 525 1 L 524 1 L 524 0 Z M 528 0 L 529 0 L 529 1 L 528 1 L 528 0 Z M 532 0 L 533 0 L 533 1 L 532 1 L 532 0 Z M 536 0 L 537 0 L 537 1 L 536 1 L 536 0 Z M 540 0 L 541 0 L 541 1 L 540 1 L 540 0 Z M 544 0 L 545 0 L 545 1 L 544 1 L 544 0 Z M 548 0 L 549 0 L 549 1 L 548 1 L 548 0 Z M 552 0 L 553 0 L 553 1 L 552 1 L 552 0 Z M 556 0 L 557 0 L 557 1 L 556 1 L 556 0 Z M 560 0 L 561 0 L 561 1 L 560 1 L 560 0 Z M 564 0 L 565 0 L 565 1 L 564 1 L 564 0 Z M 568 0 L 569 0 L 569 1 L 568 1 L 568 0 Z M 572 0 L 573 0 L 573 1 L 572 1 L 572 0 Z M 576 0 L 577 0 L 577 1 L 576 1 L 576 0 Z M 580 0 L 581 0 L 581 1 L 580 1 L 580 0 Z M 584 0 L 585 0 L 585 1 L 584 1 L 584 0 Z M 588 0 L 589 0 L 589 1 L 588 1 L 588 0 Z M 592 0 L 593 0 L 593 1 L 592 1 L 592 0 Z M 596 0 L 597 0 L 597 1 L 596 1 L 596 0 Z M 600 0 L 601 0 L 601 1 L 600 1 L 600 0 Z M 604 0 L 605 0 L 605 1 L 604 1 L 604 0 Z M 608 0 L 609 0 L 609 1 L 608 1 L 608 0 Z M 612 0 L 613 0 L 613 1 L 612 1 L 612 0 Z M 616 0 L 617 0 L 617 1 L 616 1 L 616 0 Z M 620 0 L 621 0 L 621 1 L 620 1 L 620 0 Z M 624 0 L 625 0 L 625 1 L 624 1 L 624 0 Z M 628 0 L 629 0 L 629 1 L 628 1 L 628 0 Z M 632 0 L 633 0 L 633 1 L 632 1 L 632 0 Z M 636 0 L 637 0 L 637 1 L 636 1 L 636 0 Z M 640 0 L 641 0 L 641 1 L 640 1 L 640 0 Z M 644 0 L 645 0 L 645 1 L 644 1 L 644 0 Z M 648 0 L 649 0 L 649 1 L 648 1 L 648 0 Z M 652 0 L 653 0 L 653 1 L 652 1 L 652 0 Z M 656 0 L 657 0 L 657 1 L 656 1 L 656 0 Z M 660 0 L 661 0 L 661 1 L 660 1 L 660 0 Z M 664 0 L 665 0 L 665 1 L 664 1 L 664 0 Z M 668 0 L 669 0 L 669 1 L 668 1 L 668 0 Z M 672 0 L 673 0 L 673 1 L 672 1 L 672 0 Z M 676 0 L 677 0 L 677 1 L 676 1 L 676 0 Z M 680 0 L 681 0 L 681 1 L 680 1 L 680 0 Z M 684 0 L 685 0 L 685 1 L 684 1 L 684 0 Z M 688 0 L 689 0 L 689 1 L 688 1 L 688 0 Z M 692 0 L 693 0 L 693 1 L 692 1 L 692 0 Z M 696 0 L 697 0 L 697 1 L 696 1 L 696 0 Z M 700 0 L 701 0 L 701 1 L 700 1 L 700 0 Z M 704 0 L 705 0 L 705 1 L 704 1 L 704 0 Z M 708 0 L 709 0 L 709 1 L 708 1 L 708 0 Z M 712 0 L 713 0 L 713 1 L 712 1 L 712 0 Z M 716 0 L 717 0 L 717 1 L 716 1 L 716 0 Z M 720 0 L 721 0 L 721 1 L 720 1 L 720 0 Z M 724 0 L 725 0 L 725 1 L 724 1 L 724 0 Z M 728 0 L 729 0 L 729 1 L 728 1 L 728 0 Z M 732 0 L 733 0 L 733 1 L 732 1 L 732 0 Z M 736 0 L 737 0 L 737 1 L 736 1 L 736 0 Z M 740 0 L 741 0 L 741 1 L 740 1 L 740 0 Z M 744 0 L 745 0 L 745 1 L 744 1 L 744 0 Z M 748 0 L 749 0 L 749 1 L 748 1 L 748 0 Z M 752 0 L 753 0 L 753 1 L 752 1 L 752 0 Z M 756 0 L 757 0 L 757 1 L 756 1 L 756 0 Z M 760 0 L 761 0 L 761 1 L 760 1 L 760 0 Z M 764 0 L 765 0 L 765 1 L 764 1 L 764 0 Z M 768 0 L 769 0 L 769 1 L 768 1 L 768 0 Z M 772 0 L 773 0 L 773 1 L 772 1 L 772 0 Z M 776 0 L 777 0 L 777 1 L 776 1 L 776 0 Z M 780 0 L 781 0 L 781 1 L 780 1 L 780 0 Z M 784 0 L 785 0 L 785 1 L 784 1 L 784 0 Z M 788 0 L 789 0 L 789 1 L 788 1 L 788 0 Z M 792 0 L 793 0 L 793 1 L 792 1 L 792 0 Z M 796 0 L 797 0 L 797 1 L 796 1 L 796 0 Z M 800 0 L 801 0 L 801 1 L 800 1 L 800 0 Z M 804 0 L 805 0 L 805 1 L 804 1 L 804 0 Z M 808 0 L 809 0 L 809 1 L 808 1 L 808 0 Z M 812 0 L 813 0 L 813 1 L 812 1 L 812 0 Z M 816 0 L 817 0 L 817 1 L 816 1 L 816 0 Z M 820 0 L 821 0 L 821 1 L 820 1 L 820 0 Z M 824 0 L 825 0 L 825 1 L 824 1 L 824 0 Z M 828 0 L 829 0 L 829 1 L 828 1 L 828 0 Z M 832 0 L 833 0 L 833 1 L 832 1 L 832 0 Z M 836 0 L 837 0 L 837 1 L 836 1 L 836 0 Z M 840 0 L 841 0 L 841 1 L 840 1 L 840 0 Z M 844 0 L 845 0 L 845 1 L 844 1 L 844 0 Z M 848 0 L 849 0 L 849 1 L 848 1 L 848 0 Z M 852 0 L 853 0 L 853 1 L 852 1 L 852 0 Z M 856 0 L 857 0 L 857 1 L 856 1 L 856 0 Z M 860 0 L 861 0 L 861 1 L 860 1 L 860 0 Z M 864 0 L 865 0 L 865 1 L 864 1 L 864 0 Z M 868 0 L 869 0 L 869 1 L 868 1 L 868 0 Z M 872 0 L 873 0 L 873 1 L 872 1 L 872 0 Z M 876 0 L 877 0 L 877 1 L 876 1 L 876 0 Z M 880 0 L 881 0 L 881 1 L 880 1 L 880 0 Z M 884 0 L 885 0 L 885 1 L 884 1 L 884 0 Z M 888 0 L 889 0 L 889 1 L 888 1 L 888 0 Z M 892 0 L 893 0 L 893 1 L 892 1 L 892 0 Z M 896 0 L 897 0 L 897 1 L 896 1 L 896 0 Z M 900 0 L 901 0 L 901 1 L 900 1 L 900 0 Z M 904 0 L 905 0 L 905 1 L 904 1 L 904 0 Z M 908 0 L 909 0 L 909 1 L 908 1 L 908 0 Z M 912 0 L 913 0 L 913 1 L 912 1 L 912 0 Z M 916 0 L 917 0 L 917 1 L 916 1 L 916 0 Z M 920 0 L 921 0 L 921 1 L 920 1 L 920 0 Z M 924 0 L 925 0 L 925 1 L 924 1 L 924 0 Z M 928 0 L 929 0 L 929 1 L 928 1 L 928 0 Z M 932 0 L 933 0 L 933 1 L 932 1 L 932 0 Z M 936 0 L 937 0 L 937 1 L 936 1 L 936 0 Z M 940 0 L 941 0 L 941 1 L 940 1 L 940 0 Z M 944 0 L 945 0 L 945 1 L 944 1 L 944 0 Z M 948 0 L 949 0 L 949 1 L 948 1 L 948 0 Z M 952 0 L 953 0 L 953 1 L 952 1 L 952 0 Z M 956 0 L 957 0 L 957 1 L 956 1 L 956 0 Z M 960 0 L 961 0 L 961 1 L 960 1 L 960 0 Z M 964 0 L 965 0 L 965 1 L 964 1 L 964 0 Z M 968 0 L 969 0 L 969 1 L 968 1 L 968 0 Z M 972 0 L 973 0 L 973 1 L 972 1 L 972 0 Z M 976 0 L 977 0 L 977 1 L 976 1 L 976 0 Z M 980 0 L 981 0 L 981 1 L 980 1 L 980 0 Z M 984 0 L 985 0 L 985 1 L 984 1 L 984 0 Z M 988 0 L 989 0 L 989 1 L 988 1 L 988 0 Z M 992 0 L 993 0 L 993 1 L 992 1 L 992 0 Z M 996 0 L 997 0 L 997 1 L 996 1 L 996 0 Z M 1000 0 L 1001 0 L 1001 1 L 1000 1 L 1000 0 Z M 1004 0 L 1005 0 L 1005 1 L 1004 1 L 1004 0 Z M 1008 0 L 1009 0 L 1009 1 L 1008 1 L 1008 0 Z M 1012 0 L 1013 0 L 1013 1 L 1012 1 L 1012 0 Z M 1016 0 L 1017 0 L 1017 1 L 1016 1 L 1016 0 Z M 1020 0 L 1021 0 L 1021 1 L 1020 1 L 1020 0 Z M 1024 0 L 1025 0 L 1025 1 L 1024 1 L 1024 0 Z M 1028 0 L 1029 0 L 1029 1 L 1028 1 L 1028 0 Z M 1032 0 L 1033 0 L 1033 1 L 1032 1 L 1032 0 Z M 1036 0 L 1037 0 L 1037 1 L 1036 1 L 1036 0 Z M 1040 0 L 1041 0 L 1041 1 L 1040 1 L 1040 0 Z M 1044 0 L 1045 0 L 1045 1 L 1044 1 L 1044 0 Z M 1048 0 L 1049 0 L 1049 1 L 1048 1 L 1048 0 Z M 1052 0 L 1053 0 L 1053 1 L 1052 1 L 1052 0 Z M 1056 0 L 1057 0 L 1057 1 L 1056 1 L 1056 0 Z M 1058 0 L 1059 0 L 1059 1 C 1059 1 1058 1 1058 1 L 1058 0 Z M 1054 0 L 1055 0 L 1055 1 C 1055 1 1054 1 1054 1 L 1054 0 Z M 1050 0 L 1051 0 L 1051 1 C 1051 1 1050 1 1050 1 L 1050 0 Z M 1046 0 L 1047 0 L 1047 1 C 1047 1 1046 1 1046 1 L 1046 0 Z M 1042 0 L 1043 0 L 1043 1 C 1043 1 1042 1 1042 1 L 1042 0 Z M 1038 0 L 1039 0 L 1039 1 C 1039 1 1038 1 1038 1 L 1038 0 Z M 1034 0 L 1035 0 L 1035 1 C 1035 1 1034 1 1034 1 L 1034 0 Z M 1030 0 L 1031 0 L 1031 1 C 1031 1 1030 1 1030 1 L 1030 0 Z M 1026 0 L 1027 0 L 1027 1 C 1027 1 1026 1 1026 1 L 1026 0 Z M 1022 0 L 1023 0 L 1023 1 C 1023 1 1022 1 1022 1 L 1022 0 Z M 1018 0 L 1019 0 L 1019 1 C 1019 1 1018 1 1018 1 L 1018 0 Z M 1014 0 L 1015 0 L 1015 1 C 1015 1 1014 1 1014 1 L 1014 0 Z M 1010 0 L 1011 0 L 1011 1 C 1011 1 1010 1 1010 1 L 1010 0 Z M 1006 0 L 1007 0 L 1007 1 C 1007 1 1006 1 1006 1 L 1006 0 Z M 1002 0 L 1003 0 L 1003 1 C 1003 1 1002 1 1002 1 L 1002 0 Z M 998 0 L 999 0 L 999 1 C 999 1 998 1 998 1 L 998 0 Z M 994 0 L 995 0 L 995 1 C 995 1 994 1 994 1 L 994 0 Z M 990 0 L 991 0 L 991 1 C 991 1 990 1 990 1 L 990 0 Z M 986 0 L 987 0 L 987 1 C 987 1 986 1 986 1 L 986 0 Z M 982 0 L 983 0 L 983 1 C 983 1 982 1 982 1 L 982 0 Z M 978 0 L 979 0 L 979 1 C 979 1 978 1 978 1 L 978 0 Z M 974 0 L 975 0 L 975 1 C 975 1 974 1 974 1 L 974 0 Z M 970 0 L 971 0 L 971 1 C 971 1 970 1 970 1 L 970 0 Z M 966 0 L 967 0 L 967 1 C 967 1 966 1 966 1 L 966 0 Z M 962 0 L 963 0 L 963 1 C 963 1 962 1 962 1 L 962 0 Z M 958 0 L 959 0 L 959 1 C 959 1 958 1 958 1 L 958 0 Z M 954 0 L 955 0 L 955 1 C 955 1 954 1 954 1 L 954 0 Z M 950 0 L 951 0 L 951 1 C 951 1 950 1 950 1 L 950 0 Z M 946 0 L 947 0 L 947 1 C 947 1 946 1 946 1 L 946 0 Z M 942 0 L 943 0 L 943 1 C 943 1 942 1 942 1 L 942 0 Z M 938 0 L 939 0 L 939 1 C 939 1 938 1 938 1 L 938 0 Z M 934 0 L 935 0 L 935 1 C 935 1 934 1 934 1 L 934 0 Z M 930 0 L 931 0 L 931 1 C 931 1 930 1 930 1 L 930 0 Z M 926 0 L 927 0 L 927 1 C 927 1 926 1 926 1 L 926 0 Z M 922 0 L 923 0 L 923 1 C 923 1 922 1 922 1 L 922 0 Z M 918 0 L 919 0 L 919 1 C 919 1 918 1 918 1 L 918 0 Z M 914 0 L 915 0 L 915 1 C 915 1 914 1 914 1 L 914 0 Z M 910 0 L 911 0 L 911 1 C 911 1 910 1 910 1 L 910 0 Z M 906 0 L 907 0 L 907 1 C 907 1 906 1 906 1 L 906 0 Z M 902 0 L 903 0 L 903 1 C 903 1 902 1 902 1 L 902 0 Z M 898 0 L 899 0 L 899 1 C 899 1 898 1 898 1 L 898 0 Z M 894 0 L 895 0 L 895 1 C 895 1 894 1 894 1 L 894 0 Z M 890 0 L 891 0 L 891 1 C 891 1 890 1 890 1 L 890 0 Z M 886 0 L 887 0 L 887 1 C 887 1 886 1 886 1 L 886 0 Z M 882 0 L 883 0 L 883 1 C 883 1 882 1 882 1 L 882 0 Z M 878 0 L 879 0 L 879 1 C 879 1 878 1 878 1 L 878 0 Z M 874 0 L 875 0 L 875 1 C 875 1 874 1 874 1 L 874 0 Z M 870 0 L 871 0 L 871 1 C 871 1 870 1 870 1 L 870 0 Z M 866 0 L 867 0 L 867 1 C 867 1 866 1 866 1 L 866 0 Z M 862 0 L 863 0 L 863 1 C 863 1 862 1 862 1 L 862 0 Z M 858 0 L 859 0 L 859 1 C 859 1 858 1 858 1 L 858 0 Z M 854 0 L 855 0 L 855 1 C 855 1 854 1 854 1 L 854 0 Z M 850 0 L 851 0 L 851 1 C 851 1 850 1 850 1 L 850 0 Z M 846 0 L 847 0 L 847 1 C 847 1 846 1 846 1 L 846 0 Z M 842 0 L 843 0 L 843 1 C 843 1 842 1 842 1 L 842 0 Z M 838 0 L 839 0 L 839 1 C 839 1 838 1 838 1 L 838 0 Z M 834 0 L 835 0 L 835 1 C 835 1 834 1 834 1 L 834 0 Z M 830 0 L 831 0 L 831 1 C 831 1 830 1 830 1 L 830 0 Z M 826 0 L 827 0 L 827 1 C 827 1 826 1 826 1 L 826 0 Z M 822 0 L 823 0 L 823 1 C 823 1 822 1 822 1 L 822 0 Z M 818 0 L 819 0 L 819 1 C 819 1 818 1 818 1 L 818 0 Z M 814 0 L 815 0 L 815 1 C 815 1 814 1 814 1 L 814 0 Z M 810 0 L 811 0 L 811 1 C 811 1 810 1 810 1 L 810 0 Z M 806 0 L 807 0 L 807 1 C 807 1 806 1 806 1 L 806 0 Z M 802 0 L 803 0 L 803 1 C 803 1 802 1 802 1 L 802 0 Z M 798 0 L 799 0 L 799 1 C 799 1 798 1 798 1 L 798 0 Z M 794 0 L 795 0 L 795 1 C 795 1 794 1 794 1 L 794 0 Z M 790 0 L 791 0 L 791 1 C 791 1 790 1 790 1 L 790 0 Z M 786 0 L 787 0 L 787 1 C 787 1 786 1 786 1 L 786 0 Z M 782 0 L 783 0 L 783 1 C 783 1 782 1 782 1 L 782 0 Z M 778 0 L 779 0 L 779 1 C 779 1 778 1 778 1 L 778 0 Z M 774 0 L 775 0 L 775 1 C 775 1 774 1 774 1 L 774 0 Z M 770 0 L 771 0 L 771 1 C 771 1 770 1 770 1 L 770 0 Z M 766 0 L 767 0 L 767 1 C 767 1 766 1 766 1 L 766 0 Z M 762 0 L 763 0 L 763 1 C 763 1 762 1 762 1 L 762 0 Z M 758 0 L 759 0 L 759 1 C 759 1 758 1 758 1 L 758 0 Z M 754 0 L 755 0 L 755 1 C 755 1 754 1 754 1 L 754 0 Z M 750 0 L 751 0 L 751 1 C 751 1 750 1 750 1 L 750 0 Z M 746 0 L 747 0 L 747 1 C 747 1 746 1 746 1 L 746 0 Z M 742 0 L 743 0 L 743 1 C 743 1 742 1 742 1 L 742 0 Z M 738 0 L 739 0 L 739 1 C 739 1 738 1 738 1 L 738 0 Z M 734 0 L 735 0 L 735 1 C 735 1 734 1 734 1 L 734 0 Z M 730 0 L 731 0 L 731 1 C 731 1 730 1 730 1 L 730 0 Z M 726 0 L 727 0 L 727 1 C 727 1 726 1 726 1 L 726 0 Z M 722 0 L 723 0 L 723 1 C 723 1 722 1 722 1 L 722 0 Z M 718 0 L 719 0 L 719 1 C 719 1 718 1 718 1 L 718 0 Z M 714 0 L 715 0 L 715 1 C 715 1 714 1 714 1 L 714 0 Z M 710 0 L 711 0 L 711 1 C 711 1 710 1 710 1 L 710 0 Z M 706 0 L 707 0 L 707 1 C 707 1 706 1 706 1 L 706 0 Z M 702 0 L 703 0 L 703 1 C 703 1 702 1 702 1 L 702 0 Z M 698 0 L 699 0 L 699 1 C 699 1 698 1 698 1 L 698 0 Z M 694 0 L 695 0 L 695 1 C 695 1 694 1 694 1 L 694 0 Z M 690 0 L 691 0 L 691 1 C 691 1 690 1 690 1 L 690 0 Z M 686 0 L 687 0 L 687 1 C 687 1 686 1 686 1 L 686 0 Z M 682 0 L 683 0 L 683 1 C 683 1 682 1 682 1 L 682 0 Z M 678 0 L 679 0 L 679 1 C 679 1 678 1 678 1 L 678 0 Z M 674 0 L 675 0 L 675 1 C 675 1 674 1 674 1 L 674 0 Z M 670 0 L 671 0 L 671 1 C 671 1 670 1 670 1 L 670 0 Z M 666 0 L 667 0 L 667 1 C 667 1 666 1 666 1 L 666 0 Z M 662 0 L 663 0 L 663 1 C 663 1 662 1 662 1 L 662 0 Z M 658 0 L 659 0 L 659 1 C 659 1 658 1 658 1 L 658 0 Z M 654 0 L 655 0 L 655 1 C 655 1 654 1 654 1 L 654 0 Z M 650 0 L 651 0 L 651 1 C 651 1 650 1 650 1 L 650 0 Z M 646 0 L 647 0 L 647 1 C 647 1 646 1 646 1 L 646 0 Z M 642 0 L 643 0 L 643 1 C 643 1 642 1 642 1 L 642 0 Z M 638 0 L 639 0 L 639 1 C 639 1 638 1 638 1 L 638 0 Z M 634 0 L 635 0 L 635 1 C 635 1 634 1 634 1 L 634 0 Z M 630 0 L 631 0 L 631 1 C 631 1 630 1 630 1 L 630 0 Z M 626 0 L 627 0 L 627 1 C 627 1 626 1 626 1 L 626 0 Z M 622 0 L 623 0 L 623 1 C 623 1 622 1 622 1 L 622 0 Z M 618 0 L 619 0 L 619 1 C 619 1 618 1 618 1 L 618 0 Z M 614 0 L 615 0 L 615 1 C 615 1 614 1 614 1 L 614 0 Z M 610 0 L 611 0 L 611 1 C 611 1 610 1 610 1 L 610 0 Z M 606 0 L 607 0 L 607 1 C 607 1 606 1 606 1 L 606 0 Z M 602 0 L 603 0 L 603 1 C 603 1 602 1 602 1 L 602 0 Z M 598 0 L 599 0 L 599 1 C 599 1 598 1 598 1 L 598 0 Z M 594 0 L 595 0 L 595 1 C 595 1 594 1 594 1 L 594 0 Z M 590 0 L 591 0 L 591 1 C 591 1 590 1 590 1 L 590 0 Z M 586 0 L 587 0 L 587 1 C 587 1 586 1 586 1 L 586 0 Z M 582 0 L 583 0 L 583 1 C 583 1 582 1 582 1 L 582 0 Z M 578 0 L 579 0 L 579 1 C 579 1 578 1 578 1 L 578 0 Z M 574 0 L 575 0 L 575 1 C 575 1 574 1 574 1 L 574 0 Z M 570 0 L 571 0 L 571 1 C 571 1 570 1 570 1 L 570 0 Z M 566 0 L 567 0 L 567 1 C 567 1 566 1 566 1 L 566 0 Z M 562 0 L 563 0 L 563 1 C 563 1 562 1 562 1 L 562 0 Z M 558 0 L 559 0 L 559 1 C 559 1 558 1 558 1 L 558 0 Z M 554 0 L 555 0 L 555 1 C 555 1 554 1 554 1 L 554 0 Z M 550 0 L 551 0 L 551 1 C 551 1 550 1 550 1 L 550 0 Z M 546 0 L 547 0 L 547 1 C 547 1 546 1 546 1 L 546 0 Z M 542 0 L 543 0 L 543 1 C 543 1 542 1 542 1 L 542 0 Z M 538 0 L 539 0 L 539 1 C 539 1 538 1 538 1 L 538 0 Z M 534 0 L 535 0 L 535 1 C 535 1 534 1 534 1 L 534 0 Z M 530 0 L 531 0 L 531 1 C 531 1 530 1 530 1 L 530 0 Z M 526 0 L 527 0 L 527 1 C 527 1 526 1 526 1 L 526 0 Z M 522 0 L 523 0 L 523 1 C 523 1 522 1 522 1 L 522 0 Z M 518 0 L 519 0 L 519 1 C 519 1 518 1 518 1 L 518 0 Z M 514 0 L 515 0 L 515 1 C 515 1 514 1 514 1 L 514 0 Z M 510 0 L 511 0 L 511 1 C 511 1 510 1 510 1 L 510 0 Z M 506 0 L 507 0 L 507 1 C 507 1 506 1 506 1 L 506 0 Z M 502 0 L 503 0 L 503 1 C 503 1 502 1 502 1 L 502 0 Z M 498 0 L 499 0 L 499 1 C 499 1 498 1 498 1 L 498 0 Z M 494 0 L 495 0 L 495 1 C 495 1 494 1 494 1 L 494 0 Z M 490 0 L 491 0 L 491 1 C 491 1 490 1 490 1 L 490 0 Z M 486 0 L 487 0 L 487 1 C 487 1 486 1 486 1 L 486 0 Z M 482 0 L 483 0 L 483 1 C 483 1 482 1 482 1 L 482 0 Z M 478 0 L 479 0 L 479 1 C 479 1 478 1 478 1 L 478 0 Z M 474 0 L 475 0 L 475 1 C 475 1 474 1 474 1 L 474 0 Z M 470 0 L 471 0 L 471 1 C 471 1 470 1 470 1 L 470 0 Z M 466 0 L 467 0 L 467 1 C 467 1 466 1 466 1 L 466 0 Z M 462 0 L 463 0 L 463 1 C 463 1 462 1 462 1 L 462 0 Z M 458 0 L 459 0 L 459 1 C 459 1 458 1 458 1 L 458 0 Z M 454 0 L 455 0 L 455 1 C 455 1 454 1 454 1 L 454 0 Z M 450 0 L 451 0 L 451 1 C 451 1 450 1 450 1 L 450 0 Z M 446 0 L 447 0 L 447 1 C 447 1 446 1 446 1 L 446 0 Z M 442 0 L 443 0 L 443 1 C 443 1 442 1 442 1 L 442 0 Z M 438 0 L 439 0 L 439 1 C 439 1 438 1 438 1 L 438 0 Z M 434 0 L 435 0 L 435 1 C 435 1 434 1 434 1 L 434 0 Z M 430 0 L 431 0 L 431 1 C 431 1 430 1 430 1 L 430 0 Z M 426 0 L 427 0 L 427 1 C 427 1 426 1 426 1 L 426 0 Z M 422 0 L 423 0 L 423 1 C 423 1 422 1 422 1 L 422 0 Z M 418 0 L 419 0 L 419 1 C 419 1 418 1 418 1 L 418 0 Z M 414 0 L 415 0 L 415 1 C 415 1 414 1 414 1 L 414 0 Z M 410 0 L 411 0 L 411 1 C 411 1 410 1 410 1 L 410 0 Z M 406 0 L 407 0 L 407 1 C 407 1 406 1 406 1 L 406 0 Z M 402 0 L 403 0 L 403 1 C 403 1 402 1 402 1 L 402 0 Z M 398 0 L 399 0 L 399 1 C 399 1 398 1 398 1 L 398 0 Z M 394 0 L 395 0 L 395 1 C 395 1 394 1 394 1 L 394 0 Z M 390 0 L 391 0 L 391 1 C 391 1 390 1 390 1 L 390 0 Z M 386 0 L 387 0 L 387 1 C 387 1 386 1 386 1 L 386 0 Z M 382 0 L 383 0 L 383 1 C 383 1 382 1 382 1 L 382 0 Z M 378 0 L 379 0 L 379 1 C 379 1 378 1 378 1 L 378 0 Z M 374 0 L 375 0 L 375 1 C 375 1 374 1 374 1 L 374 0 Z M 370 0 L 371 0 L 371 1 C 371 1 370 1 370 1 L 370 0 Z M 366 0 L 367 0 L 367 1 C 367 1 366 1 366 1 L 366 0 Z M 362 0 L 363 0 L 363 1 C 363 1 362 1 362 1 L 362 0 Z M 358 0 L 359 0 L 359 1 C 359 1 358 1 358 1 L 358 0 Z M 354 0 L 355 0 L 355 1 C 355 1 354 1 354 1 L 354 0 Z M 350 0 L 351 0 L 351 1 C 351 1 350 1 350 1 L 350 0 Z M 346 0 L 347 0 L 347 1 C 347 1 346 1 346 1 L 346 0 Z M 342 0 L 343 0 L 343 1 C 343 1 342 1 342 1 L 342 0 Z M 338 0 L 339 0 L 339 1 C 339 1 338 1 338 1 L 338 0 Z M 334 0 L 335 0 L 335 1 C 335 1 334 1 334 1 L 334 0 Z M 330 0 L 331 0 L 331 1 C 331 1 330 1 330 1 L 330 0 Z M 326 0 L 327 0 L 327 1 C 327 1 326 1 326 1 L 326 0 Z M 322 0 L 323 0 L 323 1 C 323 1 322 1 322 1 L 322 0 Z M 318 0 L 319 0 L 319 1 C 319 1 318 1 318 1 L 318 0 Z M 314 0 L 315 0 L 315 1 C 315 1 314 1 314 1 L 314 0 Z M 310 0 L 311 0 L 311 1 C 311 1 310 1 310 1 L 310 0 Z M 306 0 L 307 0 L 307 1 C 307 1 306 1 306 1 L 306 0 Z M 302 0 L 303 0 L 303 1 C 303 1 302 1 302 1 L 302 0 Z M 298 0 L 299 0 L 299 1 C 299 1 298 1 298 1 L 298 0 Z M 294 0 L 295 0 L 295 1 C 295 1 294 1 294 1 L 294 0 Z M 290 0 L 291 0 L 291 1 C 291 1 290 1 290 1 L 290 0 Z M 286 0 L 287 0 L 287 1 C 287 1 286 1 286 1 L 286 0 Z M 282 0 L 283 0 L 283 1 C 283 1 282 1 282 1 L 282 0 Z M 278 0 L 279 0 L 279 1 C 279 1 278 1 278 1 L 278 0 Z M 274 0 L 275 0 L 275 1 C 275 1 274 1 274 1 L 274 0 Z M 270 0 L 271 0 L 271 1 C 271 1 270 1 270 1 L 270 0 Z M 266 0 L 267 0 L 267 1 C 267 1 266 1 266 1 L 266 0 Z M 262 0 L 263 0 L 263 1 C 263 1 262 1 262 1 L 262 0 Z M 258 0 L 259 0 L 259 1 C 259 1 258 1 258 1 L 258 0 Z M 254 0 L 255 0 L 255 1 C 255 1 254 1 254 1 L 254 0 Z M 250 0 L 251 0 L 251 1 C 251 1 250 1 250 1 L 250 0 Z M 246 0 L 247 0 L 247 1 C 247 1 246 1 246 1 L 246 0 Z M 242 0 L 243 0 L 243 1 C 243 1 242 1 242 1 L 242 0 Z M 238 0 L 239 0 L 239 1 C 239 1 238 1 238 1 L 238 0 Z M 234 0 L 235 0 L 235 1 C 235 1 234 1 234 1 L 234 0 Z M 230 0 L 231 0 L 231 1 C 231 1 230 1 230 1 L 230 0 Z M 226 0 L 227 0 L 227 1 C 227 1 226 1 226 1 L 226 0 Z M 222 0 L 223 0 L 223 1 C 223 1 222 1 222 1 L 222 0 Z M 218 0 L 219 0 L 219 1 C 219 1 218 1 218 1 L 218 0 Z M 214 0 L 215 0 L 215 1 C 215 1 214 1 214 1 L 214 0 Z M 210 0 L 211 0 L 211 1 C 211 1 210 1 210 1 L 210 0 Z M 206 0 L 207 0 L 207 1 C 207 1 206 1 206 1 L 206 0 Z M 202 0 L 203 0 L 203 1 C 203 1 202 1 202 1 L 202 0 Z M 198 0 L 199 0 L 199 1 C 199 1 198 1 198 1 L 198 0 Z M 194 0 L 195 0 L 195 1 C 195 1 194 1 194 1 L 194 0 Z M 190 0 L 191 0 L 191 1 C 191 1 190 1 190 1 L 190 0 Z M 186 0 L 187 0 L 187 1 C 187 1 186 1 186 1 L 186 0 Z M 182 0 L 183 0 L 183 1 C 183 1 182 1 182 1 L 182 0 Z M 178 0 L 179 0 L 179 1 C 179 1 178 1 178 1 L 178 0 Z M 174 0 L 175 0 L 175 1 C 175 1 174 1 174 1 L 174 0 Z M 170 0 L 171 0 L 171 1 C 171 1 170 1 170 1 L 170 0 Z M 166 0 L 167 0 L 167 1 C 167 1 166 1 166 1 L 166 0 Z M 162 0 L 163 0 L 163 1 C 163 1 162 1 162 1 L 162 0 Z M 158 0 L 159 0 L 159 1 C 159 1 158 1 158 1 L 158 0 Z M 154 0 L 155 0 L 155 1 C 155 1 154 1 154 1 L 154 0 Z M 150 0 L 151 0 L 151 1 C 151 1 150 1 150 1 L 150 0 Z M 146 0 L 147 0 L 147 1 C 147 1 146 1 146 1 L 146 0 Z M 142 0 L 143 0 L 143 1 C 143 1 142 1 142 1 L 142 0 Z M 138 0 L 139 0 L 139 1 C 139 1 138 1 138 1 L 138 0 Z M 134 0 L 135 0 L 135 1 C 135 1 134 1 134 1 L 134 0 Z M 130 0 L 131 0 L 131 1 C 131 1 130 1 130 1 L 130 0 Z M 126 0 L 127 0 L 127 1 C 127 1 126 1 126 1 L 126 0 Z M 122 0 L 123 0 L 123 1 C 123 1 122 1 122 1 L 122 0 Z M 118 0 L 119 0 L 119 1 C 119 1 118 1 118 1 L 118 0 Z M 114 0 L 115 0 L 115 1 C 115 1 114 1 114 1 L 114 0 Z M 110 0 L 111 0 L 111 1 C 111 1 110 1 110 1 L 110 0 Z M 106 0 L 107 0 L 107 1 C 107 1 106 1 106 1 L 106 0 Z M 102 0 L 103 0 L 103 1 C 103 1 102 1 102 1 L 102 0 Z M 98 0 L 99 0 L 99 1 C 99 1 98 1 98 1 L 98 0 Z M 94 0 L 95 0 L 95 1 C 95 1 94 1 94 1 L 94 0 Z M 90 0 L 91 0 L 91 1 C 91 1 90 1 90 1 L 90 0 Z M 86 0 L 87 0 L 87 1 C 87 1 86 1 86 1 L 86 0 Z M 82 0 L 83 0 L 83 1 C 83 1 82 1 82 1 L 82 0 Z M 78 0 L 79 0 L 79 1 C 79 1 78 1 78 1 L 78 0 Z M 74 0 L 75 0 L 75 1 C 75 1 74 1 74 1 L 74 0 Z M 70 0 L 71 0 L 71 1 C 71 1 70 1 70 1 L 70 0 Z M 66 0 L 67 0 L 67 1 C 67 1 66 1 66 1 L 66 0 Z M 62 0 L 63 0 L 63 1 C 63 1 62 1 62 1 L 62 0 Z M 58 0 L 59 0 L 59 1 C 59 1 58 1 58 1 L 58 0 Z M 54 0 L 55 0 L 55 1 C 55 1 54 1 54 1 L 54 0 Z M 50 0 L 51 0 L 51 1 C 51 1 50 1 50 1 L 50 0 Z M 46 0 L 47 0 L 47 1 C 47 1 46 1 46 1 L 46 0 Z M 42 0 L 43 0 L 43 1 C 43 1 42 1 42 1 L 42 0 Z M 38 0 L 39 0 L 39 1 C 39 1 38 1 38 1 L 38 0 Z M 34 0 L 35 0 L 35 1 C 35 1 34 1 34 1 L 34 0 Z M 30 0 L 31 0 L 31 1 C 31 1 30 1 30 1 L 30 0 Z M 26 0 L 27 0 L 27 1 C 27 1 26 1 26 1 L 26 0 Z M 22 0 L 23 0 L 23 1 C 23 1 22 1 22 1 L 22 0 Z M 18 0 L 19 0 L 19 1 C 19 1 18 1 18 1 L 18 0 Z M 14 0 L 15 0 L 15 1 C 15 1 14 1 14 1 L 14 0 Z M 10 0 L 11 0 L 11 1 C 11 1 10 1 10 1 L 10 0 Z M 6 0 L 7 0 L 7 1 C 7 1 6 1 6 1 L 6 0 Z M 2 0 L 3 0 L 3 1 C 3 1 2 1 2 1 L 2 0 Z" stroke="none" fill="#97a4b1"/>
  </g>
</svg>
