<svg xmlns="http://www.w3.org/2000/svg" xmlns:xlink="http://www.w3.org/1999/xlink" width="24" height="24" viewBox="0 0 24 24">
  <defs>
    <clipPath id="clip-path">
      <path id="Mask" d="M13.177,13.384a1.229,1.229,0,0,0,.655-.281,1.016,1.016,0,0,0,.2-.619S14,10.6,14.894,10.317s2.011,1.826,3.21,2.634a2.3,2.3,0,0,0,1.594.477l3.206-.044s1.676-.1.882-1.4A10.581,10.581,0,0,0,21.4,9.282c-2.011-1.831-1.741-1.535.68-4.7,1.474-1.929,2.064-3.106,1.879-3.61C23.787.488,22.7.616,22.7.616L19.094.638a.834.834,0,0,0-.466.081,1,1,0,0,0-.319.38,20.309,20.309,0,0,1-1.332,2.762c-1.607,2.678-2.249,2.82-2.512,2.654-.612-.388-.459-1.558-.459-2.389,0-2.6.4-3.678-.781-3.958A6.274,6.274,0,0,0,11.541,0,7.938,7.938,0,0,0,8.546.3c-.411.2-.728.637-.534.663a1.631,1.631,0,0,1,1.065.525,3.365,3.365,0,0,1,.357,1.6s.212,3.056-.5,3.435c-.486.26-1.153-.271-2.586-2.7a22.409,22.409,0,0,1-1.288-2.62,1.055,1.055,0,0,0-.3-.4A1.494,1.494,0,0,0,4.211.594L.782.616S.267.63.078.85c-.168.195-.013.6-.013.6S2.75,7.615,5.79,10.722a8.321,8.321,0,0,0,5.953,2.662Z" transform="translate(0 5)" fill="#fff"/>
    </clipPath>
  </defs>
  <g id="Resources_Icons_Social_VK" data-name="Resources / Icons / Social / VK" transform="translate(0)">
    <g id="vk">
      <path id="Rectangle" d="M0,0H24V24H0Z" fill="none"/>
      <path id="Mask-2" data-name="Mask" d="M13.177,13.384a1.229,1.229,0,0,0,.655-.281,1.016,1.016,0,0,0,.2-.619S14,10.6,14.894,10.317s2.011,1.826,3.21,2.634a2.3,2.3,0,0,0,1.594.477l3.206-.044s1.676-.1.882-1.4A10.581,10.581,0,0,0,21.4,9.282c-2.011-1.831-1.741-1.535.68-4.7,1.474-1.929,2.064-3.106,1.879-3.61C23.787.488,22.7.616,22.7.616L19.094.638a.834.834,0,0,0-.466.081,1,1,0,0,0-.319.38,20.309,20.309,0,0,1-1.332,2.762c-1.607,2.678-2.249,2.82-2.512,2.654-.612-.388-.459-1.558-.459-2.389,0-2.6.4-3.678-.781-3.958A6.274,6.274,0,0,0,11.541,0,7.938,7.938,0,0,0,8.546.3c-.411.2-.728.637-.534.663a1.631,1.631,0,0,1,1.065.525,3.365,3.365,0,0,1,.357,1.6s.212,3.056-.5,3.435c-.486.26-1.153-.271-2.586-2.7a22.409,22.409,0,0,1-1.288-2.62,1.055,1.055,0,0,0-.3-.4A1.494,1.494,0,0,0,4.211.594L.782.616S.267.63.078.85c-.168.195-.013.6-.013.6S2.75,7.615,5.79,10.722a8.321,8.321,0,0,0,5.953,2.662Z" transform="translate(0 5)" fill="#fff"/>
      <g id="vk-2" data-name="vk" clip-path="url(#clip-path)">
        <g id="_Resources_ChangeColorsHere_Ink" data-name="_Resources / ChangeColorsHere / Ink">
          <path id="Rectangle_4_Copy_11" data-name="Rectangle 4 Copy 11" d="M4,0H20a4,4,0,0,1,4,4V20a4,4,0,0,1-4,4H4a4,4,0,0,1-4-4V4A4,4,0,0,1,4,0Z" fill="#c7ccd1"/>
        </g>
      </g>
    </g>
  </g>
</svg>
